Coordinates
version=1
nRows=14
nColumns=40
inDegrees=yes

Units are S.I. units (second, meters, Newtons, ...)
Angles are in degrees.

endheader
time	pelvis_tilt	pelvis_list	pelvis_rotation	pelvis_tx	pelvis_ty	pelvis_tz	hip_flexion_r	hip_adduction_r	hip_rotation_r	knee_angle_r	knee_angle_r_beta	ankle_angle_r	subtalar_angle_r	mtp_angle_r	hip_flexion_l	hip_adduction_l	hip_rotation_l	knee_angle_l	knee_angle_l_beta	ankle_angle_l	subtalar_angle_l	mtp_angle_l	lumbar_extension	lumbar_bending	lumbar_rotation	arm_flex_r	arm_add_r	arm_rot_r	elbow_flex_r	pro_sup_r	wrist_flex_r	wrist_dev_r	arm_flex_l	arm_add_l	arm_rot_l	elbow_flex_l	pro_sup_l	wrist_flex_l	wrist_dev_l
      9.87414286	     -3.98427611	     -3.46685288	     -5.58944444	      0.96785407	      0.93494404	      0.43530183	     37.23901715	     -4.20808179	     -6.03076256	     55.06541434	     55.06541434	     -1.17563361	    -16.18166470	      1.71956201	      8.71400511	     -3.91348564	     -9.44589842	     16.15299985	     16.15299985	     12.53480672	    -11.74353318	     -4.44368695	    -11.98289573	      5.43633739	      3.40172752	      2.53808569	    -12.92463786	     -6.08119789	     49.04237766	     46.42025788	      0.00000000	      0.00000000	     17.32177772	    -16.38458277	      4.73369409	     58.03522412	     46.62083030	      0.00000000	      0.00000000
      9.88578571	     -4.08320853	     -3.60586937	     -5.82658399	      0.96761928	      0.93490898	      0.43572737	     37.31054829	     -3.75992354	     -6.33078159	     50.83835727	     50.83835727	     -0.95074350	    -15.31634944	      0.66403294	      7.88006146	     -4.00320793	     -9.70811839	     15.51578582	     15.51578582	     12.66999792	    -11.50926405	     -4.64108264	    -12.08282631	      5.62456498	      3.27783596	      2.15091418	    -12.89316888	     -6.24077227	     43.39789184	     46.56715410	      0.00000000	      0.00000000	     18.19241078	    -16.84982936	      3.82528317	     61.08672436	     46.78080003	      0.00000000	      0.00000000
      9.89742857	     -4.13593525	     -3.78490008	     -6.01209787	      0.96759101	      0.93475572	      0.43614173	     37.11027587	     -3.31291085	     -6.73090057	     46.31229571	     46.31229571	     -0.38986895	    -13.76196289	      0.65903992	      7.04346079	     -4.12850640	     -9.89339789	     15.00074836	     15.00074836	     12.93401883	    -11.29478291	     -4.69860338	    -12.28449995	      5.90481565	      3.89103427	      0.27714585	    -13.34386304	     -6.18057531	     40.98552633	     46.63013467	      0.00000000	      0.00000000	     19.79960625	    -16.77083332	      3.37785592	     63.11168480	     46.86298595	      0.00000000	      0.00000000
      9.90907143	     -4.22355401	     -3.87519964	     -6.11436511	      0.96777243	      0.93437158	      0.43657657	     36.67774269	     -2.97610491	     -7.20555763	     41.37720459	     41.37720459	     -0.45018329	    -12.03593829	     -0.61285402	      6.25589912	     -4.17333028	    -10.11412915	     14.48881445	     14.48881445	     13.13873195	    -10.95343021	     -5.04546694	    -12.30197756	      6.04505098	      3.34059644	      0.74655857	    -13.06780409	     -6.62304400	     34.09565279	     46.86377107	      0.00000000	      0.00000000	     20.10739063	    -17.64315982	      2.65281138	     66.84770042	     47.01423471	      0.00000000	      0.00000000
      9.92071429	     -4.27674248	     -3.96932457	     -6.20943463	      0.96825483	      0.93377715	      0.43703516	     36.04863281	     -2.64452544	     -7.73868585	     36.39324671	     36.39324671	     -0.05633433	     -9.51462036	     -0.45709237	      5.43916403	     -4.20879901	    -10.26316282	     14.03935628	     14.03935628	     13.44757576	    -10.68007003	     -5.16925997	    -12.41546484	      6.22644374	      3.76030872	     -0.95113324	    -13.32872278	     -6.70582606	     31.67002049	     46.93113032	      0.00000000	      0.00000000	     21.44074455	    -17.56689637	      2.01742598	     69.23297304	     47.12124024	      0.00000000	      0.00000000
      9.93235714	     -4.27761727	     -4.04674169	     -6.21515898	      0.96905780	      0.93302082	      0.43751753	     35.17713046	     -2.35929645	     -8.44495821	     31.37792507	     31.37792507	      0.30180998	     -6.65046770	      0.19839801	      4.60855796	     -4.23544062	    -10.39423713	     13.68525967	     13.68525967	     13.79146123	    -10.36354784	     -5.40806152	    -12.50253063	      6.39275473	      3.67025584	     -1.94675077	    -13.39698203	     -6.92762291	     28.37518102	     47.04489203	      0.00000000	      0.00000000	     22.20013033	    -17.95627187	      1.48056740	     72.19939886	     47.24008421	      0.00000000	      0.00000000
      9.94400000	     -4.32659008	     -4.13445616	     -6.17229222	      0.97011319	      0.93195856	      0.43820003	     34.20442682	     -1.93971824	     -8.95845803	     26.41522033	     26.41522033	      0.36435447	     -4.29852236	      1.19982572	      3.90651453	     -4.28985913	    -10.36128001	     13.50295691	     13.50295691	     14.18142468	    -10.30329155	     -5.59233868	    -12.42546720	      6.55943956	      3.75069839	     -3.68190740	    -13.51852688	     -6.94061612	     27.11059435	     47.07956241	      0.00000000	      0.00000000	     23.42692274	    -18.11811958	      1.12811557	     73.81443528	     47.30505288	      0.00000000	      0.00000000
      9.95564286	     -4.15051220	     -4.11877562	     -6.09240597	      0.97166730	      0.93087695	      0.43876877	     33.20828613	     -1.86722773	    -10.06313189	     22.46858625	     22.46858625	      1.74368236	     -0.65317807	      5.35690865	      2.87721186	     -4.20960822	    -10.48730441	     13.21336200	     13.21336200	     14.70121019	     -9.83853544	     -5.73845362	    -12.64239525	      6.57607881	      3.35955737	     -4.30028635	    -13.48373838	     -7.40160613	     23.55133521	     47.22461827	      0.00000000	      0.00000000	     23.48450916	    -18.66787608	      0.19656384	     78.06780661	     47.50404502	      0.00000000	      0.00000000
      9.96728571	     -4.04610233	     -4.12218669	     -5.97374321	      0.97345952	      0.92946943	      0.43959243	     32.15037619	     -1.60425192	    -10.83011285	     18.68412799	     18.68412799	      1.76711270	      1.60603732	      6.57264872	      1.99239142	     -4.17078451	    -10.41353201	     13.06656853	     13.06656853	     15.17617082	     -9.72474100	     -5.91116805	    -12.64706021	      6.64786682	      3.57747828	     -6.22771011	    -13.57233393	     -7.43351968	     22.65867172	     47.24325340	      0.00000000	      0.00000000	     24.61452434	    -18.62206642	     -0.03061503	     79.78000889	     47.56451266	      0.00000000	      0.00000000
      9.97892857	     -3.87970555	     -4.07473878	     -5.86929931	      0.97555815	      0.92794749	      0.44058298	     31.23754259	     -1.47664509	    -11.84736563	     15.93545654	     15.93545654	      2.10465684	      3.95114604	      8.17251493	      0.99477662	     -4.08233522	    -10.40817363	     12.87895161	     12.87895161	     15.73165934	     -9.48307307	     -6.00372504	    -12.70557857	      6.58769231	      3.84648731	     -8.20731905	    -13.57441630	     -7.49652053	     21.98856149	     47.25222509	      0.00000000	      0.00000000	     25.54154559	    -18.64445336	     -0.12991551	     82.11885303	     47.63078404	      0.00000000	      0.00000000
      9.99057143	     -3.82023794	     -3.96647493	     -5.75733833	      0.97771687	      0.92619190	      0.44166346	     30.70762510	     -1.47117611	    -12.89197570	     14.32789765	     14.32789765	      2.98549677	      5.91306468	     11.17540239	      0.18895944	     -3.96956714	    -10.43561163	     12.84655903	     12.84655903	     16.48298228	     -9.09976888	     -5.65644830	    -12.62382386	      6.47626829	      3.71169355	    -10.13817912	    -13.53345952	     -7.65698513	     22.27883220	     47.21303269	      0.00000000	      0.00000000	     25.89654873	    -19.11195005	     -0.24475392	     85.12176550	     47.72983394	      0.00000000	      0.00000000
     10.00221429	     -3.78966390	     -4.00095478	     -5.64848967	      0.98008524	      0.92432193	      0.44319841	     30.10389283	     -1.19092507	    -13.42785725	     13.10913226	     13.10913226	      3.00529032	      6.60482798	     11.60904369	     -0.57518476	     -4.03821430	    -10.31408885	     12.87777733	     12.87777733	     17.07386811	     -9.09870873	     -5.67511782	    -12.42449179	      6.49339086	      3.89660012	    -11.88004970	    -13.40988006	     -7.63745055	     21.79099535	     47.21010146	      0.00000000	      0.00000000	     26.75439443	    -19.08582873	     -0.50983767	     86.57168694	     47.78588716	      0.00000000	      0.00000000
     10.01385714	     -3.70922186	     -3.99424968	     -5.52808976	      0.98265146	      0.92248228	      0.44478262	     29.62533264	     -1.09212634	    -14.18839766	     12.84437265	     12.84437265	      3.05041339	      7.37816672	     11.40334086	     -1.37923741	     -4.09895699	    -10.35444367	     13.00245180	     13.00245180	     18.09947683	     -8.55827273	     -4.84100847	    -12.32969398	      6.47256379	      3.91334187	    -13.99186001	    -13.38245422	     -7.67951128	     22.84184595	     47.11990270	      0.00000000	      0.00000000	     26.95494501	    -19.32773751	     -0.64080778	     89.22686729	     47.87809235	      0.00000000	      0.00000000
     10.02550000	     -3.69492329	     -4.06990206	     -5.42514618	      0.98525714	      0.92053123	      0.44672673	     29.21153038	     -0.85299945	    -14.50181430	     13.05510281	     13.05510281	      2.93850350	      7.33848780	     10.82571624	     -2.08905097	     -4.27468439	    -10.27996993	     13.16565422	     13.16565422	     18.80050149	     -8.45111073	     -4.62003718	    -12.11264406	      6.49220449	      4.18002596	    -15.69664218	    -13.20555457	     -7.61526252	     22.72981265	     47.09267817	      0.00000000	      0.00000000	     27.52497150	    -19.12797958	     -0.84305824	     90.80754279	     47.93503402	      0.00000000	      0.00000000
